<svg width="0" height="0" class="hidden">
  <symbol xmlns="http://www.w3.org/2000/svg" viewBox="0 0 24 24" id="components-icon">
    <path fill-rule="evenodd" clip-rule="evenodd" d="M7.75732 6.34323L12 2.10059L16.2426 6.34323L12 10.5859L7.75732 6.34323ZM10.5858 6.34323L12 4.92901L13.4142 6.34323L12 7.75744L10.5858 6.34323Z"></path>
    <path fill-rule="evenodd" clip-rule="evenodd" d="M2.10059 12L6.34323 7.75739L10.5859 12L6.34323 16.2427L2.10059 12ZM4.92901 12L6.34323 10.5858L7.75744 12L6.34323 13.4142L4.92901 12Z"></path>
    <path fill-rule="evenodd" clip-rule="evenodd" d="M13.4143 12L17.6569 16.2427L21.8996 12L17.6569 7.75739L13.4143 12ZM17.6569 10.5858L16.2427 12L17.6569 13.4142L19.0712 12L17.6569 10.5858Z"></path>
    <path fill-rule="evenodd" clip-rule="evenodd" d="M7.75732 17.657L12 13.4144L16.2426 17.657L12 21.8996L7.75732 17.657ZM10.5858 17.657L12 16.2428L13.4142 17.657L12 19.0712L10.5858 17.657Z"></path>
  </symbol>
  <symbol version="1.1" xmlns="http://www.w3.org/2000/svg" xmlns:xlink="http://www.w3.org/1999/xlink" preserveAspectRatio="xMidYMid" viewBox="0 -77 256 256" id="flux-icon">
    <g>
      <path d="M205.033306,0 C194.985421,0 185.626982,2.92069408 177.731799,7.93881888 L127.998545,44.4649493 L101.785025,25.2157135 C100.205407,27.7785934 98.6141521,30.3269281 97.0927149,32.9654436 C96.7261736,33.5996182 96.3858138,34.24252 96.0250906,34.8766946 L117.936114,50.9666936 L71.958455,84.729219 C65.6574357,88.6564471 58.4080635,90.7335144 50.9637845,90.7335144 C29.0382155,90.7335144 11.1969637,72.8951716 11.1969637,50.9666936 C11.1969637,29.0382155 29.0353064,11.1998727 50.9637845,11.1998727 C58.4080635,11.1998727 65.6603448,13.274031 71.958455,17.2041681 L76.5285849,20.5583118 C78.4165634,17.2943489 80.3743594,14.1060215 82.3496097,10.9409666 L78.2652924,7.94172793 C70.3730185,2.92069408 61.0116703,0.00290905785 50.9637845,0.00290905785 C22.8186498,0.00290905785 0,22.8215588 0,50.9666936 C0,79.1118283 22.8157407,101.930478 50.9637845,101.930478 C61.0116703,101.930478 70.3730185,99.009784 78.2652924,93.9916592 L127.998545,57.4684379 L154.313883,76.7933092 C155.925501,74.1518846 157.53421,71.5017329 159.125464,68.741037 C159.439643,68.1941342 159.72473,67.6501403 160.036,67.1032375 L138.063886,50.9666936 L184.038636,17.2041681 C190.339655,13.27694 197.591936,11.1998727 205.033306,11.1998727 C226.961785,11.1998727 244.800127,29.0382155 244.800127,50.9666936 C244.800127,72.8951716 226.961785,90.7335144 205.033306,90.7335144 C197.589027,90.7335144 190.339655,88.6593561 184.038636,84.729219 L179.535414,81.4216202 C177.627072,84.7175828 175.695458,87.9204554 173.755116,91.068056 L177.734708,93.9887501 C185.629891,99.009784 194.98833,101.927569 205.036215,101.927569 C233.18135,101.927569 256,79.1089192 256,50.9637845 C255.997091,22.8186498 233.18135,0 205.033306,0 L205.033306,0 Z"></path>
    </g>
  </symbol>
  <symbol role="img" xmlns="http://www.w3.org/2000/svg" viewBox="0 0 24 24" id="react-icon">
    <title>React icon</title>
    <path d="M12 9.861A2.139 2.139 0 1 0 12 14.139 2.139 2.139 0 1 0 12 9.861zM6.008 16.255l-.472-.12C2.018 15.246 0 13.737 0 11.996s2.018-3.25 5.536-4.139l.472-.119.133.468a23.53 23.53 0 0 0 1.363 3.578l.101.213-.101.213a23.307 23.307 0 0 0-1.363 3.578l-.133.467zM5.317 8.95c-2.674.751-4.315 1.9-4.315 3.046 0 1.145 1.641 2.294 4.315 3.046a24.95 24.95 0 0 1 1.182-3.046A24.752 24.752 0 0 1 5.317 8.95zM17.992 16.255l-.133-.469a23.357 23.357 0 0 0-1.364-3.577l-.101-.213.101-.213a23.42 23.42 0 0 0 1.364-3.578l.133-.468.473.119c3.517.889 5.535 2.398 5.535 4.14s-2.018 3.25-5.535 4.139l-.473.12zm-.491-4.259c.48 1.039.877 2.06 1.182 3.046 2.675-.752 4.315-1.901 4.315-3.046 0-1.146-1.641-2.294-4.315-3.046a24.788 24.788 0 0 1-1.182 3.046zM5.31 8.945l-.133-.467C4.188 4.992 4.488 2.494 6 1.622c1.483-.856 3.864.155 6.359 2.716l.34.349-.34.349a23.552 23.552 0 0 0-2.422 2.967l-.135.193-.235.02a23.657 23.657 0 0 0-3.785.61l-.472.119zm1.896-6.63c-.268 0-.505.058-.705.173-.994.573-1.17 2.565-.485 5.253a25.122 25.122 0 0 1 3.233-.501 24.847 24.847 0 0 1 2.052-2.544c-1.56-1.519-3.037-2.381-4.095-2.381zM16.795 22.677c-.001 0-.001 0 0 0-1.425 0-3.255-1.073-5.154-3.023l-.34-.349.34-.349a23.53 23.53 0 0 0 2.421-2.968l.135-.193.234-.02a23.63 23.63 0 0 0 3.787-.609l.472-.119.134.468c.987 3.484.688 5.983-.824 6.854a2.38 2.38 0 0 1-1.205.308zm-4.096-3.381c1.56 1.519 3.037 2.381 4.095 2.381h.001c.267 0 .505-.058.704-.173.994-.573 1.171-2.566.485-5.254a25.02 25.02 0 0 1-3.234.501 24.674 24.674 0 0 1-2.051 2.545zM18.69 8.945l-.472-.119a23.479 23.479 0 0 0-3.787-.61l-.234-.02-.135-.193a23.414 23.414 0 0 0-2.421-2.967l-.34-.349.34-.349C14.135 1.778 16.515.767 18 1.622c1.512.872 1.812 3.37.824 6.855l-.134.468zM14.75 7.24c1.142.104 2.227.273 3.234.501.686-2.688.509-4.68-.485-5.253-.988-.571-2.845.304-4.8 2.208A24.849 24.849 0 0 1 14.75 7.24zM7.206 22.677A2.38 2.38 0 0 1 6 22.369c-1.512-.871-1.812-3.369-.823-6.854l.132-.468.472.119c1.155.291 2.429.496 3.785.609l.235.02.134.193a23.596 23.596 0 0 0 2.422 2.968l.34.349-.34.349c-1.898 1.95-3.728 3.023-5.151 3.023zm-1.19-6.427c-.686 2.688-.509 4.681.485 5.254.987.563 2.843-.305 4.8-2.208a24.998 24.998 0 0 1-2.052-2.545 24.976 24.976 0 0 1-3.233-.501zM12 16.878c-.823 0-1.669-.036-2.516-.106l-.235-.02-.135-.193a30.388 30.388 0 0 1-1.35-2.122 30.354 30.354 0 0 1-1.166-2.228l-.1-.213.1-.213a30.3 30.3 0 0 1 1.166-2.228c.414-.716.869-1.43 1.35-2.122l.135-.193.235-.02a29.785 29.785 0 0 1 5.033 0l.234.02.134.193a30.006 30.006 0 0 1 2.517 4.35l.101.213-.101.213a29.6 29.6 0 0 1-2.517 4.35l-.134.193-.234.02c-.847.07-1.694.106-2.517.106zm-2.197-1.084c1.48.111 2.914.111 4.395 0a29.006 29.006 0 0 0 2.196-3.798 28.585 28.585 0 0 0-2.197-3.798 29.031 29.031 0 0 0-4.394 0 28.477 28.477 0 0 0-2.197 3.798 29.114 29.114 0 0 0 2.197 3.798z"></path>
  </symbol>
  <symbol xmlns="http://www.w3.org/2000/svg" viewBox="0 0 32 32" id="redux-icon">
    <path d="M22.177 22.005c1.161-0.099 2.057-1.12 2-2.339-0.063-1.219-1.063-2.197-2.276-2.197h-0.084c-1.255 0.041-2.239 1.099-2.197 2.359 0.041 0.641 0.301 1.156 0.661 1.536-1.401 2.719-3.495 4.715-6.677 6.396-2.135 1.115-4.391 1.537-6.588 1.235-1.839-0.255-3.276-1.077-4.156-2.396-1.319-2-1.439-4.151-0.339-6.312 0.801-1.557 2-2.699 2.796-3.256-0.197-0.52-0.437-1.395-0.557-2.057-5.916 4.235-5.312 10.032-3.515 12.767 1.339 2 4.072 3.276 7.067 3.276 0.803 0 1.641-0.057 2.459-0.261 5.199-1 9.131-4.115 11.385-8.708zM29.307 17.011c-3.093-3.636-7.651-5.636-12.843-5.636h-0.683c-0.333-0.735-1.115-1.197-1.995-1.197h-0.057c-1.26 0-2.24 1.083-2.199 2.339 0.043 1.197 1.057 2.197 2.276 2.197h0.1c0.9-0.041 1.677-0.599 2-1.401h0.739c3.079 0 5.991 0.901 8.652 2.657 2.031 1.337 3.495 3.099 4.312 5.197 0.719 1.713 0.677 3.396-0.063 4.797-1.135 2.192-3.057 3.353-5.588 3.353-1.599 0-3.156-0.5-3.959-0.859-0.479 0.396-1.281 1.057-1.86 1.459 1.761 0.796 3.537 1.255 5.256 1.255 3.896 0 6.792-2.193 7.891-4.312 1.197-2.396 1.099-6.433-1.959-9.891zM8.651 22.724c0.043 1.197 1.057 2.197 2.281 2.197h0.079c1.281-0.041 2.255-1.099 2.197-2.359 0-1.199-1.036-2.199-2.255-2.199h-0.084c-0.077 0-0.197 0-0.301 0.043-1.656-2.797-2.355-5.797-2.095-9.032 0.157-2.437 0.959-4.552 2.396-6.312 1.199-1.495 3.453-2.24 4.995-2.276 4.313-0.084 6.115 5.296 6.251 7.432l2 0.599c-0.464-6.552-4.536-9.989-8.432-9.989-3.656 0-7.032 2.656-8.391 6.552-1.855 5.199-0.636 10.188 1.64 14.188-0.197 0.255-0.317 0.719-0.281 1.156z"></path>
  </symbol>
  <symbol role="img" xmlns="http://www.w3.org/2000/svg" viewBox="0 0 24 24" id="saga-icon">
    <path d="M7.871 4.678a3.315 3.315 0 0 0-1.953.631C4.455 6.35 3.724 8.235 3.534 10.007c-.204 1.938.23 4.166 1.398 5.638-.194.57.193 1.202.793 1.268a.975.975 0 0 0 1.06-.713c.197-.66-.425-1.342-1.13-1.189-.982-1.321-1.29-3.038-1.186-4.653.125-1.576.683-3.255 1.985-4.245.81-.602 1.828-.622 2.65-.075 1.107.742 1.763 2.132 1.97 3.43l.51.199.551.288c-.198-1.888-1.097-3.866-2.576-4.774a3.149 3.149 0 0 0-1.688-.503zm9.515 3.946a8.752 8.752 0 0 0-3.056.526.968.968 0 0 0-1.246.27c-.394.505-.162 1.297.475 1.495.615.211 1.29-.284 1.265-.918a7.778 7.778 0 0 1 2.839-.403c1.575.07 3.665.654 4.626 2.148.076.119.165.404.521.4a.484.484 0 0 0 .422-.7c-.526-.99-1.522-1.725-2.636-2.194-.984-.412-2.095-.62-3.21-.624zm-11.06.717c-.455-.003-.93.296-.979.933.012 1.233 1.657 1.33 1.912.24 1.887-.271 3.894.584 5.3 1.717.973.77 1.852 1.993 2.072 3.083.162.071.61.265 1.002.306-.146-1.638-1.215-3.101-2.452-4.127-1.568-1.33-4.123-2.328-6.218-1.903a.912.912 0 0 0-.636-.249zm-3.418 1.86c-.866.609-1.65 1.36-2.185 2.282C.008 14.668-.312 16.24.4 17.499c.66 1.218 2.082 1.78 3.41 1.812a7.263 7.263 0 0 0 2.265-.297c2.104-.59 4.373-2.222 5.274-4.362a.964.964 0 0 0 .79-.705c.2-.72-.463-1.372-1.169-1.191-.686.175-.966 1.012-.522 1.54-.607 1.389-1.8 2.449-3.112 3.161-1.493.804-3.306 1.188-4.758.659-.93-.304-1.642-1.13-1.618-2.215 0-1.297.924-2.677 2.062-3.573-.118-.538-.107-.74-.114-1.128zm20.103 1.53a.938.938 0 0 0-.672.292c-.344.327-.364.902-.092 1.248-.546.823-1.508 1.384-2.455 1.706-1.855.613-4.111.503-5.798-.38a4.48 4.48 0 0 1-.99-.674c-.141-.128-.183-.157-.296-.188-.5-.105-.783.486-.457.808 1.269 1.189 3.037 1.706 4.744 1.777.664.024 1.33-.02 1.983-.14 1.622-.302 3.318-1.107 4.168-2.521.639-.072 1.038-.775.769-1.344a.958.958 0 0 0-.904-.584zm-8.746 4.514c-.83 1.12-2.646 1.45-4.75.723-.19.13-.302.214-.433.3-.13.087-.29.17-.607.366 2.558 1.032 5.444 1.076 6.739-1.082a3.39 3.39 0 0 1-.949-.307z"></path>
  </symbol>
  <symbol id="hooks-icon" version="1.1" xmlns="http://www.w3.org/2000/svg" xmlns:xlink="http://www.w3.org/1999/xlink" viewBox="0, 0, 400,400">
    <g>
      <path id="path0" d="M172.933 36.984 C 166.957 38.632,162.801 41.804,160.571 46.419 C 159.964 47.677,159.467 48.897,159.467 49.131 C 159.467 52.058,157.478 53.703,151.467 55.749 C 149.193 56.522,146.823 57.329,146.200 57.543 C 145.577 57.756,145.067 58.043,145.067 58.181 C 145.067 58.319,144.960 58.366,144.830 58.285 C 144.604 58.146,143.855 58.404,139.933 59.973 C 139.603 60.105,138.765 60.465,138.070 60.773 C 137.375 61.081,136.748 61.333,136.677 61.333 C 136.607 61.333,135.916 61.620,135.141 61.970 C 131.893 63.439,131.168 63.759,130.534 64.000 C 130.167 64.139,129.867 64.384,129.867 64.542 C 129.867 64.701,129.762 64.767,129.633 64.687 C 129.398 64.542,121.346 68.531,118.722 70.093 C 117.945 70.555,117.264 70.933,117.208 70.933 C 117.152 70.933,116.167 71.513,115.020 72.221 C 113.872 72.929,111.890 74.151,110.615 74.938 C 109.341 75.724,108.345 76.445,108.404 76.539 C 108.462 76.634,108.356 76.711,108.167 76.711 C 107.644 76.711,97.420 84.180,96.000 85.600 C 95.927 85.673,95.087 86.390,94.133 87.192 C 79.116 99.832,65.415 118.228,57.387 136.533 C 57.098 137.193,56.618 138.273,56.322 138.933 C 56.026 139.593,55.221 141.573,54.534 143.333 C 53.847 145.093,53.181 146.773,53.054 147.067 C 52.724 147.829,50.297 155.230,49.600 157.600 C 49.276 158.700,48.912 159.900,48.791 160.267 C 48.340 161.628,46.173 170.776,45.600 173.733 C 45.430 174.613,45.188 175.813,45.063 176.400 C 44.938 176.987,44.712 178.187,44.562 179.067 C 44.308 180.548,44.184 181.332,43.477 185.933 C 43.182 187.857,42.781 191.606,42.400 196.014 C 42.055 199.997,42.055 212.356,42.399 216.133 C 43.016 222.902,43.234 225.011,43.461 226.400 C 43.593 227.207,43.835 228.767,44.000 229.867 C 44.614 233.970,45.583 238.725,45.878 239.081 C 46.016 239.247,46.059 239.452,45.973 239.538 C 45.800 239.712,47.292 245.840,48.554 250.133 C 49.007 251.673,49.474 253.293,49.593 253.733 C 50.360 256.576,53.782 265.852,55.593 270.000 C 57.354 274.031,57.415 274.133,58.113 274.170 C 58.741 274.203,58.749 274.216,58.200 274.322 C 57.449 274.466,57.227 273.849,59.959 279.224 C 62.489 284.202,62.830 284.828,64.509 287.592 C 65.109 288.580,65.600 289.438,65.600 289.499 C 65.600 289.788,72.316 299.617,74.220 302.114 C 79.364 308.863,88.128 318.273,94.133 323.495 C 95.380 324.580,96.460 325.532,96.533 325.613 C 97.628 326.811,105.718 332.869,110.453 336.036 C 114.130 338.495,115.662 339.461,118.067 340.837 C 118.543 341.110,119.383 341.591,119.933 341.907 C 122.833 343.569,127.811 346.128,130.933 347.560 C 134.571 349.228,135.301 349.537,139.200 351.066 C 141.327 351.899,143.307 352.686,143.600 352.814 C 144.285 353.114,151.347 355.465,152.400 355.744 C 152.840 355.861,154.460 356.326,156.000 356.779 C 157.540 357.232,160.540 358.026,162.667 358.545 C 167.776 359.790,168.385 359.929,170.267 360.278 C 171.147 360.442,172.347 360.677,172.933 360.801 C 173.520 360.925,174.900 361.163,176.000 361.330 C 177.100 361.497,178.660 361.741,179.467 361.873 C 180.975 362.119,183.935 362.456,188.743 362.930 C 192.334 363.284,207.619 363.281,211.200 362.925 C 215.805 362.469,221.214 361.762,223.600 361.306 C 227.224 360.613,228.032 360.447,230.133 359.963 C 233.770 359.126,235.107 358.775,239.733 357.445 C 241.567 356.918,243.485 356.384,243.995 356.258 C 244.506 356.131,244.966 355.901,245.018 355.746 C 245.070 355.590,245.218 355.529,245.347 355.608 C 245.565 355.743,247.900 355.037,250.671 353.997 C 251.328 353.750,252.527 353.308,253.333 353.015 C 254.140 352.721,255.070 352.373,255.400 352.241 C 255.730 352.108,256.300 351.880,256.667 351.733 C 257.033 351.587,257.603 351.359,257.933 351.227 C 258.263 351.095,259.102 350.735,259.797 350.427 C 260.492 350.119,261.123 349.867,261.200 349.867 C 261.621 349.867,273.839 343.901,276.667 342.315 C 281.337 339.695,289.676 334.346,293.027 331.821 C 293.709 331.307,294.618 330.627,295.047 330.310 C 310.285 319.048,327.233 300.183,336.530 284.133 C 336.785 283.693,337.414 282.613,337.927 281.733 C 339.825 278.482,340.272 277.557,340.095 277.249 C 339.996 277.075,340.013 277.023,340.134 277.132 C 340.409 277.382,341.402 275.793,341.187 275.446 C 341.101 275.306,340.888 275.272,340.715 275.372 C 340.537 275.474,340.495 275.448,340.619 275.313 C 340.739 275.181,341.029 275.072,341.263 275.070 C 342.107 275.063,341.899 274.436,341.016 274.327 L 340.133 274.219 341.114 274.176 C 341.925 274.141,342.166 273.990,342.510 273.301 C 342.938 272.443,342.850 271.855,342.340 272.170 C 342.172 272.274,342.127 272.225,342.234 272.053 C 342.335 271.890,342.592 271.824,342.805 271.905 C 343.048 271.999,343.283 271.821,343.436 271.427 C 343.569 271.082,344.038 270.020,344.478 269.067 C 347.401 262.722,348.908 258.757,351.722 250.000 C 353.831 243.437,356.001 232.840,357.045 224.000 C 358.010 215.838,358.056 192.338,357.106 192.906 C 357.011 192.962,356.910 192.152,356.882 191.104 C 356.805 188.286,355.622 180.873,354.408 175.600 C 352.714 168.243,352.009 165.532,351.693 165.151 C 351.278 164.652,350.400 165.207,350.400 165.970 C 350.400 166.309,350.293 166.935,350.162 167.360 C 350.031 167.785,349.772 168.853,349.587 169.733 C 348.482 174.971,346.578 181.329,344.775 185.800 C 344.642 186.130,344.426 186.670,344.294 187.000 C 341.095 195.015,336.271 203.522,330.796 210.803 C 329.204 212.920,327.059 215.622,326.670 216.000 C 326.595 216.073,325.633 217.150,324.533 218.394 C 320.349 223.123,314.790 228.383,309.200 232.902 C 307.440 234.325,305.428 235.956,304.728 236.526 C 303.513 237.516,303.417 238.088,304.524 237.736 C 304.809 237.646,305.618 237.471,306.321 237.349 C 307.494 237.145,309.096 236.815,315.467 235.467 C 316.713 235.203,318.993 234.722,320.533 234.398 C 322.073 234.074,323.813 233.702,324.400 233.571 C 324.987 233.439,326.098 233.218,326.871 233.079 C 327.643 232.940,328.413 232.741,328.583 232.636 C 328.753 232.531,329.202 232.420,329.580 232.389 C 330.249 232.335,332.108 231.980,334.267 231.495 C 334.853 231.363,335.723 231.167,336.200 231.061 L 337.067 230.867 337.067 232.167 C 337.068 235.063,335.729 243.612,334.368 249.400 C 333.681 252.323,333.162 254.295,332.393 256.900 C 332.182 257.614,332.086 258.334,332.181 258.500 C 332.275 258.665,332.252 258.709,332.130 258.599 C 332.008 258.488,331.505 259.628,331.011 261.132 C 330.517 262.636,330.009 264.107,329.883 264.400 C 329.756 264.693,329.379 265.653,329.046 266.533 C 327.027 271.868,324.033 277.925,320.323 284.179 C 319.356 285.809,315.189 292.074,314.944 292.267 C 314.851 292.340,314.482 292.820,314.124 293.333 C 313.767 293.847,313.333 294.447,313.160 294.667 C 304.252 306.000,295.063 314.368,281.606 323.404 C 277.189 326.369,275.467 327.459,272.600 329.103 C 272.123 329.376,271.283 329.858,270.733 330.173 C 267.187 332.207,257.467 337.067,256.945 337.067 C 256.873 337.067,256.060 337.406,255.140 337.821 C 254.220 338.235,252.747 338.847,251.867 339.180 C 250.987 339.513,250.027 339.882,249.733 340.001 C 247.758 340.801,242.885 342.445,240.267 343.195 C 239.607 343.384,238.647 343.659,238.133 343.807 C 237.620 343.954,236.900 344.168,236.533 344.283 C 235.481 344.612,229.717 345.966,228.000 346.288 C 227.487 346.384,226.958 346.527,226.826 346.605 C 226.694 346.684,226.214 346.775,225.760 346.808 C 225.305 346.841,224.153 347.003,223.200 347.169 C 212.756 348.987,194.406 349.655,185.333 348.547 C 184.087 348.394,181.927 348.143,180.533 347.988 C 172.639 347.109,162.559 345.031,154.933 342.713 C 151.286 341.603,146.156 339.804,142.688 338.417 C 141.315 337.868,140.663 337.583,137.401 336.107 C 134.933 334.991,132.181 333.630,130.400 332.645 C 129.447 332.118,128.067 331.354,127.333 330.949 C 116.218 324.803,103.656 314.546,94.652 304.267 C 93.560 303.020,92.601 301.940,92.521 301.867 C 91.435 300.875,84.733 291.918,81.946 287.733 C 79.829 284.555,75.814 277.832,74.422 275.133 C 74.206 274.715,73.804 274.387,73.488 274.369 C 73.058 274.345,73.035 274.311,73.387 274.219 C 73.778 274.116,73.681 273.782,72.676 271.783 C 69.257 264.978,66.706 258.829,64.428 251.894 C 63.652 249.532,62.866 247.060,62.681 246.400 C 62.496 245.740,62.237 244.924,62.106 244.587 C 61.974 244.251,61.867 243.808,61.867 243.605 C 61.867 243.401,61.731 242.897,61.565 242.484 C 61.399 242.071,61.234 241.493,61.198 241.200 C 61.162 240.907,61.012 240.127,60.864 239.467 C 58.208 227.606,57.077 217.544,57.056 205.600 C 57.044 198.255,57.533 190.530,58.406 184.267 C 58.539 183.313,58.781 181.573,58.944 180.400 C 59.106 179.227,59.341 177.727,59.466 177.067 C 59.591 176.407,59.834 175.087,60.007 174.133 C 60.179 173.180,60.414 172.040,60.529 171.600 C 60.645 171.160,60.890 170.080,61.076 169.200 C 62.360 163.103,65.542 153.049,67.763 148.070 C 68.040 147.448,68.267 146.881,68.267 146.811 C 68.267 146.393,72.624 137.421,74.230 134.533 C 75.868 131.586,76.326 130.804,76.831 130.092 C 77.107 129.703,77.333 129.310,77.333 129.218 C 77.333 128.180,86.826 115.443,91.459 110.267 C 92.969 108.579,101.115 100.425,102.533 99.181 C 104.836 97.162,108.502 94.187,110.533 92.689 C 111.707 91.824,113.087 90.796,113.600 90.405 C 114.941 89.383,119.416 86.400,119.608 86.400 C 119.698 86.400,120.273 86.054,120.887 85.632 C 121.500 85.210,122.452 84.610,123.001 84.299 C 123.551 83.988,124.450 83.474,125.000 83.156 C 128.148 81.338,133.499 78.606,136.800 77.130 C 141.180 75.173,143.186 74.311,144.400 73.867 C 144.693 73.759,145.233 73.547,145.600 73.395 C 145.967 73.243,146.927 72.879,147.733 72.585 C 148.540 72.292,149.734 71.852,150.387 71.607 C 151.775 71.086,156.129 69.655,158.808 68.838 C 162.034 67.854,164.538 68.234,166.743 70.040 C 174.016 75.998,187.390 72.853,192.431 64.000 C 194.372 60.591,195.370 54.122,194.431 51.040 C 194.302 50.615,194.036 49.727,193.840 49.067 C 193.421 47.650,192.211 45.259,191.343 44.133 C 190.218 42.672,189.681 42.141,189.506 42.316 C 189.411 42.411,189.333 42.340,189.333 42.159 C 189.333 41.150,185.435 38.640,182.000 37.436 C 180.664 36.967,174.168 36.644,172.933 36.984 M178.400 45.760 C 187.101 47.104,188.643 59.378,180.586 63.155 C 172.385 66.998,164.034 57.767,168.736 50.058 C 170.399 47.331,174.342 45.054,176.667 45.477 C 176.960 45.531,177.740 45.658,178.400 45.760 M152.667 104.933 C 150.208 105.372,147.999 106.106,147.316 106.712 C 147.013 106.980,146.677 107.200,146.568 107.200 C 146.065 107.200,143.147 109.442,142.488 110.335 C 142.083 110.884,141.341 111.802,140.839 112.374 C 139.945 113.395,137.601 117.970,137.599 118.698 C 137.598 118.901,137.378 119.427,137.109 119.868 C 136.840 120.309,136.556 120.969,136.476 121.335 C 134.941 128.434,134.806 129.756,134.814 137.733 C 134.817 142.039,134.961 146.329,135.152 147.867 C 136.035 154.964,136.468 157.654,137.063 159.733 C 137.948 162.832,137.988 163.583,137.281 163.930 C 136.560 164.284,133.787 165.208,132.733 165.445 C 132.330 165.536,132.000 165.735,132.000 165.887 C 132.000 166.040,131.900 166.103,131.778 166.027 C 131.499 165.855,127.075 167.351,126.000 167.982 C 125.560 168.240,124.180 168.858,122.933 169.355 C 121.687 169.853,120.007 170.609,119.200 171.036 C 118.393 171.462,116.593 172.402,115.200 173.124 C 113.807 173.846,112.224 174.788,111.682 175.218 C 111.141 175.648,110.626 176.000,110.539 176.000 C 110.130 176.000,105.566 179.299,104.194 180.587 C 103.347 181.382,102.612 181.990,102.560 181.938 C 102.509 181.886,102.121 182.228,101.700 182.697 C 101.278 183.165,100.301 184.214,99.528 185.027 C 97.969 186.666,96.715 188.615,97.009 188.941 C 97.114 189.057,97.050 189.066,96.867 188.960 C 96.562 188.785,96.407 189.100,96.508 189.686 C 96.529 189.807,96.442 189.841,96.313 189.762 C 96.185 189.683,95.928 189.944,95.743 190.342 C 95.557 190.741,95.296 191.247,95.164 191.467 C 93.394 194.402,92.731 200.945,93.852 204.414 C 94.153 205.348,94.400 206.282,94.400 206.490 C 94.400 206.698,94.575 207.013,94.788 207.190 C 95.002 207.367,95.612 208.394,96.144 209.471 C 97.489 212.192,102.807 217.997,105.867 220.082 C 106.527 220.532,107.607 221.334,108.267 221.865 C 108.927 222.395,109.827 222.999,110.267 223.207 C 110.707 223.415,111.757 224.043,112.600 224.603 C 113.443 225.162,115.123 226.105,116.333 226.698 C 117.543 227.291,119.013 228.024,119.600 228.326 C 122.438 229.790,123.777 230.391,126.000 231.199 C 126.880 231.519,128.243 232.015,129.028 232.302 C 129.813 232.589,130.713 232.980,131.028 233.170 C 131.343 233.360,132.140 233.671,132.800 233.860 C 133.460 234.050,134.668 234.429,135.484 234.702 C 136.301 234.976,137.164 235.200,137.402 235.200 C 138.270 235.200,138.209 236.133,137.061 240.400 C 136.785 241.427,136.435 243.167,136.284 244.267 C 135.603 249.219,135.486 250.202,135.188 253.467 C 134.690 258.914,135.120 271.883,135.857 273.651 C 135.961 273.900,136.425 274.150,136.889 274.209 L 137.733 274.315 136.867 274.357 C 136.307 274.385,136.000 274.537,136.000 274.787 C 136.000 275.465,136.740 278.044,137.178 278.890 C 137.410 279.339,137.600 279.834,137.600 279.990 C 137.600 280.753,140.127 285.906,141.036 286.998 C 147.306 294.526,154.730 296.612,164.533 293.600 C 164.900 293.487,165.740 293.246,166.400 293.063 C 167.060 292.880,168.440 292.435,169.467 292.073 C 170.493 291.712,171.573 291.348,171.867 291.266 C 172.160 291.183,172.902 290.775,173.515 290.358 C 174.128 289.941,174.746 289.600,174.888 289.600 C 175.203 289.600,178.167 288.062,178.520 287.715 C 178.659 287.579,178.948 287.467,179.162 287.467 C 179.376 287.467,180.162 287.006,180.909 286.444 C 181.656 285.881,182.807 285.113,183.467 284.738 C 184.945 283.896,190.079 280.131,191.813 278.616 C 192.517 278.001,193.525 277.204,194.053 276.846 C 196.019 275.510,196.971 274.400,196.151 274.400 C 195.886 274.400,195.804 274.558,195.911 274.867 C 196.041 275.243,195.991 275.230,195.655 274.800 C 195.257 274.291,195.280 274.263,196.169 274.183 C 196.681 274.137,197.303 273.932,197.550 273.727 C 199.304 272.278,200.144 271.731,200.440 271.845 C 200.629 271.918,200.851 271.867,200.933 271.733 C 201.120 271.431,201.867 271.693,201.867 272.061 C 201.867 272.225,201.718 272.208,201.490 272.020 C 201.283 271.848,201.050 271.812,200.971 271.939 C 200.892 272.067,201.038 272.343,201.296 272.552 C 202.606 273.617,203.537 274.163,203.842 274.046 C 204.029 273.975,204.351 274.023,204.558 274.154 C 204.839 274.332,204.772 274.393,204.292 274.396 C 203.424 274.401,203.950 274.991,206.624 277.007 C 207.700 277.819,208.719 278.704,208.888 278.975 C 209.057 279.245,209.305 279.467,209.440 279.467 C 209.574 279.467,210.295 279.926,211.042 280.487 C 214.568 283.137,215.965 284.112,217.635 285.087 C 218.628 285.667,219.512 286.258,219.600 286.400 C 219.688 286.542,220.624 287.098,221.680 287.636 C 224.336 288.988,224.781 289.207,226.000 289.757 C 226.587 290.022,227.136 290.338,227.220 290.460 C 227.706 291.159,236.295 293.754,240.400 294.442 C 242.145 294.734,247.874 294.554,248.363 294.191 C 248.530 294.067,249.567 293.678,250.667 293.326 C 255.194 291.876,258.820 288.496,261.241 283.467 C 261.630 282.660,262.038 281.760,262.148 281.467 C 262.259 281.173,262.713 279.973,263.158 278.800 C 264.153 276.172,264.452 274.496,263.953 274.328 C 263.751 274.261,263.778 274.234,264.017 274.267 C 265.427 274.460,265.944 258.643,264.806 250.133 C 264.678 249.180,264.432 247.320,264.259 246.000 C 263.896 243.239,263.422 240.798,262.821 238.587 C 262.252 236.496,262.263 235.200,262.849 235.200 C 263.096 235.200,263.966 234.976,264.782 234.702 C 265.599 234.429,266.807 234.046,267.467 233.853 C 268.127 233.659,268.985 233.283,269.374 233.017 C 269.764 232.751,270.275 232.533,270.511 232.533 C 270.747 232.533,271.149 232.423,271.404 232.288 C 271.658 232.153,272.587 231.779,273.467 231.458 C 276.777 230.247,284.488 226.512,286.667 225.062 C 287.473 224.526,288.853 223.698,289.733 223.222 C 290.613 222.746,291.693 222.024,292.133 221.617 C 292.573 221.210,293.508 220.491,294.211 220.018 C 295.567 219.107,300.800 214.196,300.800 213.835 C 300.800 213.718,301.250 213.159,301.800 212.594 C 302.350 212.028,303.081 211.033,303.425 210.383 C 306.194 205.139,306.296 204.868,306.678 201.733 C 307.108 198.207,306.385 193.943,305.020 191.959 C 304.752 191.570,304.533 191.121,304.533 190.963 C 304.533 190.667,302.965 187.973,302.653 187.733 C 302.558 187.660,302.432 187.469,302.373 187.308 C 302.115 186.600,298.144 182.348,296.794 181.333 C 296.307 180.967,295.577 180.336,295.174 179.933 C 294.403 179.162,291.354 177.039,290.016 176.342 C 289.585 176.118,289.045 175.716,288.816 175.450 C 288.587 175.183,287.140 174.322,285.600 173.536 C 284.060 172.749,282.380 171.842,281.867 171.519 C 281.353 171.196,280.033 170.560,278.933 170.105 C 276.289 169.012,275.377 168.617,273.467 167.739 C 271.868 167.005,268.896 165.961,265.002 164.767 C 262.145 163.890,261.829 163.613,262.147 162.267 C 264.314 153.102,264.784 149.330,264.984 139.467 C 265.160 130.840,264.619 125.391,263.195 121.420 C 262.888 120.566,262.455 119.327,262.233 118.667 C 262.010 118.007,261.476 116.724,261.047 115.817 C 260.618 114.909,260.267 114.058,260.267 113.925 C 260.267 113.792,260.012 113.454,259.702 113.175 C 259.391 112.895,258.601 111.918,257.947 111.003 C 254.413 106.060,245.565 103.249,238.451 104.808 C 237.763 104.958,236.600 105.210,235.867 105.366 C 233.857 105.794,232.829 106.135,231.034 106.972 C 230.136 107.391,229.258 107.733,229.084 107.733 C 228.909 107.733,227.964 108.105,226.983 108.559 C 226.002 109.014,224.900 109.518,224.533 109.679 C 224.167 109.841,223.507 110.232,223.067 110.548 C 222.627 110.864,221.727 111.395,221.067 111.727 C 219.807 112.361,216.762 114.160,216.533 114.404 C 216.163 114.801,214.171 116.198,213.486 116.541 C 213.056 116.757,212.079 117.503,211.315 118.200 C 210.551 118.897,209.822 119.467,209.696 119.468 C 209.441 119.469,207.396 121.137,206.510 122.067 C 206.196 122.397,205.813 122.667,205.658 122.667 C 205.504 122.667,205.338 122.757,205.289 122.867 C 205.240 122.977,204.180 123.967,202.933 125.067 C 201.687 126.167,200.627 127.157,200.578 127.267 C 200.329 127.826,199.367 127.257,197.082 125.200 C 195.697 123.953,194.492 122.933,194.405 122.933 C 194.318 122.933,193.668 122.386,192.960 121.718 C 192.252 121.049,191.202 120.205,190.627 119.842 C 190.051 119.478,189.135 118.779,188.590 118.288 C 188.046 117.797,187.228 117.171,186.773 116.897 C 186.318 116.624,184.867 115.660,183.550 114.756 C 182.232 113.851,180.380 112.708,179.435 112.215 C 178.490 111.723,177.360 111.066,176.925 110.757 C 176.490 110.447,175.713 110.017,175.200 109.801 C 174.687 109.585,173.727 109.165,173.067 108.869 C 169.522 107.277,165.867 105.909,164.274 105.577 C 159.174 104.514,156.002 104.338,152.667 104.933 M159.600 114.657 C 164.431 115.648,168.214 116.920,170.048 118.173 C 170.661 118.591,171.327 118.933,171.528 118.933 C 171.729 118.933,172.007 119.040,172.147 119.170 C 172.286 119.301,173.360 119.910,174.533 120.524 C 175.707 121.138,176.907 121.854,177.200 122.114 C 177.493 122.374,178.693 123.220,179.867 123.994 C 181.040 124.768,182.180 125.567,182.400 125.770 C 182.931 126.258,186.650 129.067,186.765 129.067 C 186.815 129.067,187.383 129.578,188.028 130.204 C 188.673 130.829,189.680 131.699,190.267 132.136 C 191.312 132.914,192.795 134.403,192.788 134.667 C 192.787 134.740,192.054 135.580,191.159 136.533 C 190.265 137.487,188.929 138.987,188.191 139.867 C 187.453 140.747,186.374 141.967,185.792 142.579 C 185.210 143.191,184.415 144.151,184.026 144.713 C 183.637 145.274,182.752 146.331,182.059 147.061 C 181.367 147.791,180.800 148.511,180.800 148.661 C 180.800 148.811,180.300 149.474,179.688 150.133 C 179.077 150.793,178.011 152.173,177.321 153.200 C 175.329 156.161,175.394 156.125,170.267 157.061 C 169.387 157.221,168.307 157.343,167.867 157.331 C 167.427 157.318,166.347 157.430,165.467 157.578 C 164.587 157.726,162.967 157.982,161.867 158.146 C 160.767 158.311,159.327 158.546,158.667 158.669 C 158.007 158.792,156.687 159.030,155.733 159.198 C 153.454 159.598,151.944 159.961,150.023 160.568 C 148.363 161.093,147.200 161.211,147.200 160.855 C 147.200 160.738,146.974 159.508,146.697 158.121 C 146.087 155.061,145.723 152.861,145.330 149.867 C 145.167 148.620,144.891 146.940,144.718 146.133 C 143.644 141.135,144.748 126.099,146.426 122.870 C 146.558 122.616,146.667 122.212,146.667 121.974 C 146.667 120.629,149.717 116.367,151.246 115.576 C 153.649 114.334,156.497 114.020,159.600 114.657 M247.090 114.822 C 249.788 115.869,253.333 120.025,253.333 122.141 C 253.333 122.296,253.558 123.167,253.833 124.078 C 254.487 126.246,254.933 128.687,254.933 130.098 C 254.933 130.722,255.031 131.171,255.150 131.097 C 255.459 130.906,255.334 142.785,254.992 146.133 C 254.599 149.981,253.982 154.269,253.343 157.600 C 253.188 158.407,252.987 159.517,252.896 160.067 C 252.686 161.328,252.027 161.361,249.200 160.250 C 248.907 160.135,248.367 159.986,248.000 159.920 C 247.633 159.853,246.433 159.619,245.333 159.399 C 241.422 158.616,235.751 157.736,230.267 157.062 C 228.947 156.899,227.433 156.654,226.902 156.517 C 226.372 156.379,225.707 156.267,225.424 156.267 C 224.925 156.267,224.004 155.198,222.205 152.533 C 221.760 151.873,221.127 151.093,220.799 150.800 C 220.470 150.507,219.750 149.607,219.197 148.800 C 218.645 147.993,217.865 147.033,217.464 146.667 C 217.064 146.300,216.464 145.580,216.132 145.067 C 215.452 144.016,211.783 139.784,209.026 136.869 C 206.669 134.377,206.673 134.361,210.228 131.525 C 211.276 130.690,212.373 129.739,212.667 129.413 C 212.960 129.086,213.764 128.425,214.452 127.943 C 215.141 127.461,216.835 126.197,218.217 125.133 C 219.598 124.070,220.835 123.196,220.964 123.190 C 221.094 123.185,221.980 122.586,222.933 121.859 C 223.887 121.132,224.828 120.536,225.026 120.535 C 225.223 120.534,225.703 120.313,226.092 120.045 C 229.012 118.029,233.508 116.122,238.267 114.880 C 238.853 114.727,239.633 114.502,240.000 114.380 C 241.214 113.976,245.616 114.250,247.090 114.822 M201.409 144.067 C 202.177 144.837,203.103 145.887,203.467 146.400 C 203.830 146.913,204.819 148.011,205.664 148.839 C 206.509 149.667,207.200 150.459,207.200 150.599 C 207.200 150.740,207.560 151.231,208.000 151.691 C 208.440 152.152,208.800 152.710,208.800 152.931 C 208.800 153.152,208.980 153.333,209.200 153.333 C 209.444 153.333,209.600 153.582,209.600 153.971 C 209.600 154.660,209.023 155.050,208.612 154.639 C 208.460 154.486,204.797 154.415,199.398 154.460 L 190.436 154.533 190.322 153.933 C 190.259 153.603,190.311 153.333,190.437 153.333 C 190.563 153.333,190.667 153.093,190.667 152.800 C 190.667 152.444,190.844 152.267,191.200 152.267 C 191.493 152.267,191.733 152.101,191.733 151.899 C 191.733 151.697,192.213 151.036,192.800 150.432 C 193.387 149.827,193.867 149.214,193.867 149.070 C 193.867 148.925,194.587 148.093,195.467 147.221 C 196.347 146.349,197.067 145.538,197.067 145.418 C 197.068 145.022,198.321 143.733,198.705 143.733 C 198.913 143.733,199.255 143.493,199.467 143.200 C 199.957 142.520,199.791 142.446,201.409 144.067 M213.896 165.324 C 216.625 165.469,219.055 165.663,219.296 165.756 C 219.931 166.000,222.209 169.133,223.518 171.564 C 224.139 172.717,224.809 173.723,225.007 173.798 C 225.204 173.874,225.638 174.490,225.972 175.168 C 226.645 176.534,227.858 178.573,229.324 180.800 C 229.856 181.607,230.578 182.867,230.929 183.600 C 231.281 184.333,231.825 185.293,232.138 185.733 C 232.451 186.173,233.526 188.153,234.527 190.133 C 235.527 192.113,236.925 194.873,237.634 196.267 C 239.424 199.787,239.475 199.493,235.953 206.088 C 235.536 206.869,235.263 207.619,235.346 207.754 C 235.430 207.890,235.379 208.000,235.234 208.000 C 235.088 208.000,234.494 209.005,233.913 210.234 C 233.331 211.462,232.739 212.540,232.595 212.628 C 232.452 212.717,232.000 213.482,231.592 214.328 C 231.184 215.174,230.628 216.185,230.358 216.574 C 230.088 216.964,229.867 217.446,229.867 217.647 C 229.867 217.848,229.504 218.451,229.062 218.989 C 228.619 219.526,227.917 220.603,227.502 221.383 C 226.301 223.638,225.545 224.893,225.044 225.467 C 224.787 225.760,223.958 227.076,223.201 228.391 C 222.444 229.706,221.444 231.216,220.979 231.746 C 220.514 232.275,220.013 232.909,219.867 233.154 C 219.421 233.898,204.466 234.759,196.800 234.483 C 180.707 233.903,180.638 233.896,179.867 232.799 C 177.104 228.866,173.439 223.176,172.653 221.600 C 172.324 220.940,171.753 220.052,171.384 219.626 C 171.015 219.201,170.569 218.541,170.392 218.160 C 169.729 216.728,168.043 213.647,167.460 212.800 C 167.207 212.433,166.274 210.693,165.387 208.933 C 164.499 207.173,163.373 204.953,162.885 204.000 C 160.727 199.785,160.738 199.885,162.133 196.933 C 162.720 195.693,163.200 194.570,163.200 194.438 C 163.200 194.306,163.386 194.044,163.613 193.856 C 163.840 193.667,164.269 192.962,164.566 192.290 C 165.453 190.279,167.503 186.296,167.871 185.867 C 168.060 185.647,168.670 184.567,169.226 183.467 C 169.782 182.367,170.561 180.984,170.957 180.393 C 171.767 179.185,173.081 176.993,174.070 175.200 C 174.434 174.540,175.004 173.700,175.337 173.333 C 175.669 172.967,176.211 172.127,176.540 171.467 C 176.870 170.807,177.483 169.765,177.903 169.152 C 178.323 168.539,178.667 167.974,178.667 167.896 C 178.667 167.818,179.129 167.283,179.695 166.706 L 180.723 165.657 183.495 165.489 C 192.497 164.946,195.759 164.851,202.000 164.950 C 205.813 165.010,211.166 165.178,213.896 165.324 M167.687 167.113 C 167.442 167.178,167.121 167.575,166.975 167.996 C 166.828 168.417,166.303 169.400,165.808 170.180 C 165.312 170.961,164.747 171.993,164.552 172.473 C 164.357 172.953,164.049 173.433,163.868 173.540 C 163.569 173.716,162.036 176.382,160.690 179.067 C 160.396 179.653,159.998 180.294,159.806 180.491 C 159.613 180.688,158.769 182.244,157.928 183.950 C 155.887 188.093,155.619 188.356,155.105 186.718 C 154.889 186.030,154.399 184.576,154.016 183.487 C 153.633 182.399,153.363 181.379,153.416 181.221 C 153.469 181.063,153.727 181.593,153.989 182.400 C 154.497 183.963,154.933 184.673,154.933 183.936 C 154.933 183.695,154.813 183.424,154.667 183.333 C 154.520 183.243,154.400 182.816,154.400 182.384 C 154.400 181.953,154.280 181.600,154.133 181.600 C 153.987 181.600,153.867 181.307,153.867 180.949 C 153.867 180.591,153.747 180.224,153.600 180.133 C 153.453 180.043,153.333 179.642,153.333 179.243 C 153.333 178.824,153.108 178.356,152.800 178.133 C 152.487 177.908,152.267 177.443,152.267 177.008 C 152.267 176.600,152.147 176.267,152.000 176.267 C 151.853 176.267,151.733 175.787,151.733 175.200 C 151.733 174.613,151.613 174.133,151.467 174.133 C 151.320 174.133,151.200 173.773,151.200 173.333 C 151.200 172.893,151.080 172.533,150.933 172.533 C 150.787 172.533,150.667 172.173,150.667 171.733 C 150.667 171.111,150.785 170.933,151.200 170.933 C 151.493 170.933,151.733 170.813,151.733 170.667 C 151.733 170.520,152.333 170.400,153.067 170.400 C 153.800 170.400,154.400 170.280,154.400 170.133 C 154.400 169.987,155.000 169.867,155.733 169.867 C 156.467 169.867,157.067 169.747,157.067 169.600 C 157.067 169.453,157.644 169.333,158.350 169.333 C 159.246 169.333,159.798 169.179,160.182 168.821 C 160.485 168.540,161.077 168.242,161.499 168.160 C 162.612 167.943,163.679 167.787,163.133 167.922 C 162.877 167.985,162.667 168.149,162.667 168.285 C 162.667 168.422,162.277 168.551,161.800 168.573 L 160.933 168.613 161.710 168.729 C 162.137 168.792,162.751 168.702,163.075 168.529 C 163.886 168.095,164.667 168.296,164.667 168.938 C 164.667 169.632,165.036 170.184,165.365 169.981 C 165.529 169.879,165.508 169.677,165.309 169.437 C 165.057 169.134,165.068 169.084,165.362 169.196 C 165.596 169.284,166.014 168.891,166.491 168.135 C 166.926 167.446,167.437 166.947,167.691 166.964 C 168.099 166.993,168.098 167.004,167.687 167.113 M236.667 168.533 C 236.757 168.680,237.477 168.800,238.267 168.800 C 239.056 168.800,239.776 168.920,239.867 169.067 C 239.957 169.213,240.684 169.333,241.482 169.333 C 242.280 169.333,242.933 169.453,242.933 169.600 C 242.933 169.747,243.473 169.867,244.133 169.867 C 244.793 169.867,245.333 169.761,245.333 169.633 C 245.333 169.504,246.143 169.563,247.133 169.765 C 250.408 170.431,250.193 170.318,249.991 171.277 C 249.640 172.935,248.207 177.735,248.022 177.867 C 247.919 177.940,247.557 178.840,247.216 179.867 C 245.447 185.208,244.469 187.692,244.178 187.578 C 243.796 187.428,240.958 181.620,241.165 181.413 C 241.247 181.331,241.457 181.580,241.633 181.966 C 241.809 182.351,242.077 182.667,242.229 182.667 C 242.398 182.667,242.381 182.541,242.187 182.347 C 242.011 182.171,241.867 181.811,241.867 181.547 C 241.867 181.283,241.747 181.067,241.600 181.067 C 241.453 181.067,241.333 180.853,241.333 180.592 C 241.333 180.331,241.093 179.945,240.800 179.733 C 240.507 179.522,240.267 179.135,240.267 178.874 C 240.267 178.614,240.147 178.400,240.000 178.400 C 239.853 178.400,239.733 178.186,239.733 177.926 C 239.733 177.665,239.493 177.278,239.200 177.067 C 238.907 176.855,238.667 176.469,238.667 176.208 C 238.667 175.947,238.547 175.733,238.400 175.733 C 238.253 175.733,238.133 175.493,238.133 175.200 C 238.133 174.907,238.013 174.667,237.867 174.667 C 237.720 174.667,237.600 174.475,237.600 174.240 C 237.600 174.006,237.240 173.478,236.800 173.067 C 236.360 172.656,236.000 172.090,236.000 171.810 C 236.000 171.530,235.750 171.032,235.445 170.704 C 235.008 170.236,234.956 170.028,235.201 169.732 C 235.372 169.526,235.435 169.231,235.341 169.078 C 235.090 168.674,235.421 168.267,236.000 168.267 C 236.276 168.267,236.576 168.387,236.667 168.533 M164.246 171.000 C 163.949 171.972,164.117 172.245,164.533 171.467 C 164.727 171.105,164.730 170.933,164.543 170.933 C 164.391 170.933,164.257 170.963,164.246 171.000 M140.723 174.600 C 141.011 175.297,141.398 176.407,141.584 177.067 C 141.770 177.727,142.030 178.542,142.161 178.879 C 142.292 179.216,142.400 179.718,142.400 179.993 C 142.400 180.269,142.574 180.670,142.787 180.883 C 143.000 181.096,143.113 181.331,143.038 181.407 C 142.872 181.573,143.984 184.918,144.877 186.933 C 145.234 187.740,145.976 189.630,146.526 191.133 C 147.076 192.637,147.629 193.867,147.755 193.867 C 147.880 193.867,147.922 194.026,147.848 194.220 C 147.773 194.414,148.197 195.521,148.790 196.679 C 149.852 198.756,150.107 200.070,149.630 201.004 C 148.699 202.825,147.200 206.061,147.200 206.250 C 147.200 206.582,145.629 210.833,144.928 212.400 C 144.103 214.242,142.893 217.945,141.573 222.667 C 141.301 223.641,140.410 225.756,140.138 226.073 C 140.104 226.114,139.496 225.898,138.788 225.595 C 138.080 225.291,136.293 224.634,134.817 224.135 C 130.180 222.566,128.957 222.102,128.133 221.598 C 127.693 221.329,126.733 220.870,126.000 220.579 C 123.683 219.659,120.071 217.873,119.754 217.491 C 119.586 217.289,119.063 216.969,118.591 216.780 C 118.119 216.590,117.050 215.977,116.215 215.418 C 115.379 214.858,114.632 214.400,114.554 214.400 C 113.631 214.400,106.127 207.386,104.848 205.329 C 102.060 200.844,102.533 196.019,106.131 192.237 C 106.719 191.619,107.200 191.023,107.200 190.912 C 107.200 190.801,107.770 190.222,108.467 189.626 C 109.163 189.030,110.483 187.894,111.399 187.102 C 112.315 186.310,113.481 185.464,113.988 185.223 C 114.496 184.982,115.487 184.346,116.189 183.809 C 116.892 183.272,118.907 182.097,120.667 181.197 C 122.427 180.296,124.227 179.366,124.667 179.130 C 125.594 178.631,126.838 178.095,128.533 177.464 C 129.193 177.218,130.003 176.908,130.333 176.775 C 130.663 176.642,131.203 176.425,131.533 176.293 C 131.863 176.161,133.033 175.686,134.133 175.238 C 136.370 174.327,139.108 173.417,139.767 173.367 C 140.048 173.345,140.386 173.781,140.723 174.600 M261.982 173.873 C 262.872 174.169,264.020 174.539,264.533 174.694 C 265.047 174.849,266.007 175.227,266.667 175.534 C 267.327 175.841,268.167 176.208,268.533 176.349 C 268.900 176.489,269.440 176.697,269.733 176.811 C 270.027 176.924,270.807 177.218,271.467 177.464 C 273.204 178.110,274.389 178.621,275.600 179.244 C 280.900 181.970,282.826 183.034,283.675 183.705 C 284.221 184.136,285.207 184.784,285.867 185.146 C 289.430 187.101,294.731 192.528,296.078 195.600 C 298.834 201.888,294.045 209.551,283.654 215.480 C 282.510 216.133,281.190 216.928,280.721 217.247 C 279.766 217.896,275.004 220.267,274.656 220.267 C 274.533 220.267,273.735 220.634,272.883 221.083 C 271.062 222.042,268.922 222.886,265.067 224.167 C 263.527 224.678,261.739 225.339,261.095 225.635 C 259.582 226.329,259.856 226.818,257.557 219.333 C 256.311 215.276,255.712 213.548,255.359 212.987 C 255.157 212.664,254.730 211.620,254.411 210.667 C 254.092 209.713,253.727 208.693,253.600 208.400 C 253.473 208.107,253.216 207.387,253.030 206.800 C 252.844 206.213,252.596 205.619,252.479 205.480 C 252.362 205.341,252.267 205.050,252.267 204.834 C 252.267 204.619,252.098 204.253,251.892 204.021 C 249.976 201.869,249.810 198.453,251.490 195.733 C 251.759 195.299,252.181 194.384,252.598 193.333 C 252.743 192.967,252.968 192.458,253.098 192.204 C 253.227 191.949,253.333 191.575,253.333 191.374 C 253.333 191.172,253.693 190.134,254.133 189.067 C 254.573 188.000,254.933 186.952,254.933 186.738 C 254.933 186.524,255.151 186.030,255.417 185.641 C 255.683 185.252,256.060 184.393,256.255 183.733 C 256.845 181.738,257.652 179.152,258.173 177.582 C 258.445 176.766,258.667 175.910,258.667 175.681 C 258.667 173.604,259.618 173.085,261.982 173.873 M154.933 184.903 C 154.933 184.959,155.083 185.359,155.267 185.792 L 155.600 186.578 156.261 185.955 C 156.806 185.443,156.841 185.333,156.461 185.333 C 156.207 185.333,156.000 185.453,156.000 185.600 C 156.000 185.747,155.880 185.867,155.733 185.867 C 155.587 185.867,155.467 185.627,155.467 185.333 C 155.467 185.040,155.347 184.800,155.200 184.800 C 155.053 184.800,154.933 184.846,154.933 184.903 M243.467 185.436 C 243.467 185.981,244.224 186.896,244.367 186.524 C 244.457 186.288,244.361 185.923,244.152 185.714 C 243.787 185.349,243.467 185.219,243.467 185.436 M155.895 212.409 C 155.927 212.625,155.844 212.735,155.710 212.652 C 155.264 212.377,155.459 212.865,155.974 213.311 C 156.253 213.553,156.523 214.037,156.574 214.388 C 156.625 214.738,156.817 215.074,157.000 215.135 C 157.223 215.208,157.276 215.082,157.161 214.756 C 156.768 213.645,157.607 214.908,158.672 217.033 C 159.548 218.779,159.714 219.314,159.437 219.485 C 159.242 219.606,159.185 219.801,159.311 219.919 C 159.437 220.037,159.593 219.983,159.659 219.800 C 159.871 219.206,160.244 219.444,160.795 220.523 C 161.474 221.854,161.476 222.197,160.800 221.333 C 160.377 220.793,160.277 220.755,160.273 221.133 C 160.269 221.390,160.387 221.600,160.533 221.600 C 160.680 221.600,160.800 221.840,160.800 222.133 C 160.800 222.713,161.223 222.864,161.396 222.347 C 161.461 222.150,161.571 222.207,161.681 222.494 C 161.788 222.773,161.755 222.896,161.597 222.798 C 161.116 222.501,161.325 223.480,161.867 224.061 C 162.160 224.376,162.400 224.791,162.400 224.984 C 162.400 225.176,162.520 225.333,162.667 225.333 C 162.813 225.333,162.933 225.529,162.933 225.769 C 162.933 226.269,163.963 227.254,164.281 227.058 C 164.533 226.902,165.305 227.954,166.122 229.569 C 166.448 230.212,167.011 231.035,167.373 231.397 C 168.280 232.304,168.346 232.301,163.866 231.581 C 156.258 230.357,150.700 229.167,152.216 229.085 C 152.698 229.060,152.332 228.533,151.832 228.533 C 151.177 228.533,150.538 227.756,150.897 227.396 C 151.064 227.230,151.200 226.697,151.200 226.213 C 151.200 225.729,151.320 225.333,151.467 225.333 C 151.613 225.333,151.733 224.973,151.733 224.533 C 151.733 224.093,151.853 223.733,152.000 223.733 C 152.147 223.733,152.267 223.308,152.267 222.789 C 152.267 222.213,152.475 221.621,152.800 221.272 C 153.093 220.957,153.333 220.422,153.333 220.083 C 153.333 219.744,153.453 219.467,153.600 219.467 C 153.747 219.467,153.867 219.100,153.867 218.651 C 153.867 218.175,153.756 217.904,153.600 218.000 C 153.289 218.192,153.269 218.078,153.504 217.466 C 153.637 217.119,153.721 217.098,153.889 217.370 C 154.055 217.637,154.148 217.605,154.291 217.232 C 154.406 216.933,154.335 216.656,154.106 216.511 C 153.826 216.333,153.882 216.274,154.333 216.271 C 154.687 216.268,154.933 216.102,154.933 215.867 C 154.933 215.386,154.409 215.323,154.379 215.800 C 154.366 216.005,154.312 216.023,154.238 215.845 C 154.172 215.686,154.301 215.206,154.524 214.778 C 154.747 214.350,154.931 214.150,154.932 214.333 C 154.933 214.517,155.053 214.667,155.200 214.667 C 155.347 214.667,155.467 214.360,155.467 213.984 C 155.467 213.609,155.354 213.371,155.217 213.456 C 155.062 213.552,155.062 213.280,155.217 212.740 C 155.354 212.262,155.467 211.819,155.467 211.757 C 155.467 211.482,155.844 212.055,155.895 212.409 M244.577 213.867 C 244.633 214.278,244.820 214.510,245.067 214.473 C 245.310 214.436,245.646 214.836,245.924 215.498 C 246.305 216.401,246.316 216.558,245.991 216.433 C 245.729 216.333,245.600 216.457,245.600 216.808 C 245.600 217.106,245.780 217.333,246.016 217.333 C 246.271 217.333,246.359 217.205,246.243 217.000 C 246.121 216.783,246.144 216.760,246.309 216.933 C 246.449 217.080,246.848 218.040,247.195 219.067 C 247.542 220.093,247.904 220.993,247.999 221.067 C 248.154 221.186,250.160 227.759,250.236 228.394 C 250.253 228.537,249.997 228.695,249.667 228.746 C 249.337 228.796,249.067 228.936,249.067 229.056 C 249.067 229.176,248.677 229.331,248.200 229.399 C 247.723 229.467,245.713 229.842,243.733 230.233 C 239.629 231.043,232.443 232.233,232.314 232.124 C 232.267 232.084,232.443 231.800,232.705 231.494 C 232.968 231.188,233.613 230.134,234.140 229.152 C 234.668 228.170,235.258 227.314,235.453 227.249 C 235.653 227.182,235.731 227.254,235.633 227.414 C 235.537 227.569,235.598 227.783,235.770 227.889 C 235.951 228.001,236.011 227.967,235.914 227.809 C 235.821 227.659,236.042 227.191,236.405 226.768 C 236.769 226.346,237.066 225.850,237.066 225.667 C 237.067 225.483,237.187 225.333,237.333 225.333 C 237.480 225.333,237.600 225.176,237.600 224.984 C 237.600 224.791,237.840 224.376,238.133 224.061 C 238.427 223.747,238.667 223.304,238.667 223.078 C 238.667 222.852,238.787 222.667,238.933 222.667 C 239.080 222.667,239.200 222.427,239.200 222.133 C 239.200 221.840,239.320 221.600,239.467 221.600 C 239.613 221.600,239.733 221.360,239.733 221.067 C 239.733 220.773,239.853 220.533,240.000 220.533 C 240.147 220.533,240.267 220.337,240.267 220.098 C 240.267 219.858,240.477 219.467,240.733 219.228 C 241.334 218.669,241.867 217.718,241.867 217.204 C 241.867 216.982,242.002 216.800,242.167 216.800 C 242.358 216.800,242.409 216.510,242.307 216.000 C 242.211 215.524,242.258 215.200,242.422 215.200 C 242.574 215.200,242.624 215.320,242.533 215.467 C 242.443 215.613,242.496 215.733,242.651 215.733 C 243.046 215.733,243.005 215.007,242.600 214.843 C 242.417 214.769,242.537 214.699,242.867 214.688 C 243.437 214.668,243.759 214.133,243.200 214.133 C 243.053 214.133,242.933 214.013,242.933 213.867 C 242.933 213.720,243.173 213.600,243.467 213.600 C 243.791 213.600,244.000 213.422,244.000 213.147 C 244.000 212.480,244.470 213.066,244.577 213.867 M157.425 216.131 C 157.595 216.497,157.828 216.797,157.943 216.798 C 158.188 216.800,157.709 215.832,157.357 215.615 C 157.225 215.533,157.255 215.765,157.425 216.131 M158.144 217.544 C 158.138 217.881,158.373 218.413,158.667 218.728 C 159.334 219.445,159.336 219.302,158.677 217.981 C 158.253 217.130,158.153 217.048,158.144 217.544 M247.529 222.667 C 247.865 223.205,248.267 223.380,248.267 222.987 C 248.267 222.710,247.689 222.133,247.411 222.133 C 247.292 222.133,247.345 222.373,247.529 222.667 M163.080 224.656 C 163.353 225.164,163.520 225.635,163.451 225.704 C 163.382 225.773,163.068 225.358,162.752 224.781 C 162.436 224.205,162.269 223.733,162.380 223.733 C 162.492 223.733,162.806 224.149,163.080 224.656 M164.533 229.992 C 164.533 230.675,164.436 230.879,164.160 230.773 C 163.955 230.695,163.707 230.760,163.609 230.919 C 163.394 231.267,165.473 231.161,165.793 230.808 C 165.907 230.683,165.830 230.680,165.621 230.801 C 165.333 230.968,165.287 230.906,165.427 230.540 C 165.675 229.893,165.388 229.067,164.915 229.067 C 164.657 229.067,164.533 229.367,164.533 229.992 M234.514 229.714 C 234.420 230.091,234.239 230.400,234.113 230.400 C 233.987 230.400,233.952 230.580,234.037 230.800 C 234.393 231.729,235.481 231.267,235.401 230.221 C 235.311 229.059,234.758 228.742,234.514 229.714 M235.867 230.933 C 235.657 231.273,236.275 231.273,236.800 230.933 C 237.125 230.723,237.091 230.674,236.616 230.671 C 236.294 230.669,235.957 230.787,235.867 230.933 M253.205 239.980 C 253.284 240.504,253.460 241.533,253.596 242.267 C 254.065 244.803,254.380 246.809,254.646 248.933 C 254.792 250.107,255.097 252.567,255.324 254.400 C 255.790 258.166,255.855 264.338,255.456 266.933 C 255.310 267.887,255.073 269.507,254.929 270.533 C 254.785 271.560,254.595 272.780,254.507 273.245 C 254.367 273.979,254.427 274.105,254.973 274.208 C 255.583 274.324,255.581 274.328,254.917 274.364 C 254.319 274.396,254.173 274.607,253.739 276.067 C 253.467 276.983,253.154 277.913,253.044 278.133 C 252.934 278.353,252.709 278.893,252.544 279.333 C 252.379 279.773,251.709 280.711,251.055 281.417 C 250.402 282.123,249.867 282.787,249.867 282.893 C 249.867 284.238,243.269 285.302,239.785 284.519 C 235.994 283.667,234.347 283.157,233.631 282.615 C 233.281 282.350,232.841 282.133,232.652 282.133 C 232.188 282.133,226.206 279.267,226.011 278.951 C 225.926 278.813,225.528 278.532,225.128 278.325 C 223.782 277.632,219.968 275.206,219.520 274.758 C 219.276 274.514,218.414 273.891,217.605 273.373 C 216.796 272.856,215.714 272.047,215.200 271.577 C 214.687 271.107,213.667 270.278,212.933 269.734 C 212.200 269.191,211.180 268.345,210.667 267.855 C 210.153 267.364,209.223 266.522,208.600 265.984 C 207.125 264.710,207.169 264.244,208.928 262.527 C 209.732 261.742,210.957 260.402,211.650 259.550 C 212.343 258.697,213.275 257.631,213.722 257.180 C 214.562 256.332,216.216 254.325,219.200 250.533 C 222.565 246.256,223.417 245.123,223.740 244.498 C 224.416 243.191,225.118 242.667,226.195 242.667 C 226.765 242.667,228.094 242.545,229.149 242.395 C 230.204 242.246,231.907 242.014,232.933 241.880 C 237.965 241.223,239.469 240.974,241.067 240.535 C 242.020 240.272,243.280 239.985,243.867 239.897 C 245.122 239.707,246.766 239.385,248.800 238.931 C 252.697 238.060,252.921 238.113,253.205 239.980 M153.200 239.321 C 155.253 239.725,157.533 240.237,158.267 240.459 C 159.000 240.680,160.380 240.972,161.333 241.108 C 162.287 241.243,163.907 241.474,164.933 241.620 C 167.906 242.042,170.654 242.379,172.667 242.566 C 175.065 242.789,175.238 242.891,176.578 244.873 C 177.854 246.760,181.709 251.732,182.828 252.933 C 183.237 253.373,184.183 254.513,184.930 255.467 C 185.677 256.420,186.763 257.704,187.344 258.320 C 188.998 260.073,191.620 262.983,192.376 263.903 L 193.062 264.738 190.733 266.836 C 189.452 267.989,188.104 269.203,187.738 269.533 C 187.372 269.863,186.971 270.133,186.847 270.133 C 186.723 270.133,186.231 270.536,185.753 271.028 C 185.275 271.520,184.115 272.440,183.176 273.072 C 182.236 273.704,181.047 274.570,180.533 274.997 C 179.435 275.910,175.551 278.400,175.224 278.400 C 175.100 278.400,174.845 278.585,174.657 278.811 C 174.346 279.187,172.577 280.088,166.888 282.769 C 165.762 283.299,164.720 283.733,164.572 283.733 C 164.423 283.733,163.964 283.869,163.551 284.035 C 162.737 284.362,162.788 284.352,159.467 284.799 C 156.172 285.242,153.236 284.884,151.307 283.804 C 149.523 282.806,146.133 277.000,146.133 274.942 C 146.133 274.567,145.949 274.390,145.533 274.369 C 145.098 274.347,145.059 274.305,145.390 274.218 C 145.887 274.088,145.897 274.256,145.158 270.400 C 144.618 267.579,144.357 257.187,144.764 254.667 C 144.917 253.713,145.174 251.853,145.333 250.533 C 145.726 247.288,146.108 244.645,146.394 243.200 C 146.525 242.540,146.783 241.180,146.969 240.177 L 147.307 238.355 148.387 238.470 C 148.981 238.534,151.147 238.917,153.200 239.321 M212.000 244.000 C 212.000 244.147,211.880 244.267,211.733 244.267 C 211.587 244.267,211.467 244.427,211.467 244.624 C 211.467 244.820,210.814 245.688,210.017 246.552 C 209.219 247.415,208.611 248.167,208.665 248.221 C 208.776 248.332,207.493 249.844,206.249 251.067 C 205.800 251.509,205.320 252.068,205.183 252.308 C 203.666 254.965,198.997 258.698,199.612 256.762 C 199.702 256.479,199.640 256.267,199.469 256.267 C 199.304 256.267,199.243 256.387,199.333 256.533 C 199.424 256.680,199.384 256.800,199.244 256.800 C 199.105 256.800,198.919 256.614,198.832 256.386 C 198.741 256.149,198.785 256.042,198.936 256.135 C 199.081 256.225,199.200 256.051,199.200 255.749 C 199.200 255.184,198.520 254.975,198.349 255.487 C 198.296 255.645,198.019 255.495,197.734 255.154 C 197.448 254.813,197.385 254.683,197.594 254.867 C 198.975 256.079,198.321 254.691,196.734 253.042 C 196.086 252.368,195.480 251.618,195.386 251.375 C 195.293 251.132,195.077 250.933,194.906 250.933 C 194.563 250.933,193.334 249.604,193.334 249.231 C 193.333 249.102,193.123 248.802,192.865 248.565 C 192.607 248.327,192.227 247.803,192.020 247.400 C 191.813 246.997,191.423 246.667,191.155 246.667 C 190.886 246.667,190.667 246.509,190.667 246.317 C 190.667 246.125,190.427 245.710,190.133 245.395 C 189.840 245.080,189.600 244.757,189.600 244.678 C 189.600 244.598,193.140 244.533,197.467 244.533 C 202.533 244.533,205.333 244.438,205.333 244.267 C 205.333 244.120,205.880 244.000,206.549 244.000 C 207.292 244.000,207.701 244.104,207.600 244.267 C 207.509 244.413,207.622 244.533,207.851 244.533 C 208.080 244.533,208.267 244.422,208.267 244.286 C 208.267 243.951,208.935 243.801,210.600 243.764 C 211.376 243.747,212.000 243.852,212.000 244.000 M209.974 245.134 L 209.948 246.000 210.271 245.225 C 210.490 244.699,210.642 244.570,210.743 244.825 C 210.851 245.100,210.897 245.075,210.912 244.733 C 210.925 244.458,210.742 244.267,210.467 244.267 C 210.124 244.268,209.993 244.497,209.974 245.134 M208.133 247.547 C 207.300 248.568,207.157 248.799,207.367 248.785 C 207.495 248.777,207.879 248.417,208.220 247.985 C 208.561 247.553,208.741 247.205,208.620 247.210 C 208.499 247.216,208.280 247.367,208.133 247.547 M203.919 252.549 C 203.801 252.999,203.843 253.041,204.154 252.783 C 204.579 252.431,204.657 252.000,204.298 252.000 C 204.168 252.000,203.998 252.247,203.919 252.549 M201.057 255.400 C 200.855 255.803,200.564 256.320,200.412 256.547 C 200.259 256.775,200.522 256.535,200.996 256.014 C 201.864 255.060,202.054 254.667,201.645 254.667 C 201.523 254.667,201.258 254.997,201.057 255.400 " stroke="none" fill-rule="evenodd"></path>
      <path id="path1" d="M166.507 168.086 C 166.203 168.552,165.872 169.263,165.772 169.665 C 165.672 170.068,165.503 170.383,165.395 170.367 C 164.565 170.239,164.198 170.747,164.920 171.025 C 165.191 171.129,165.257 171.045,165.141 170.743 C 165.031 170.457,165.080 170.377,165.287 170.505 C 165.478 170.623,165.725 170.408,165.927 169.948 C 166.108 169.537,166.341 169.138,166.445 169.061 C 166.667 168.898,167.250 167.428,167.138 167.315 C 167.095 167.273,166.811 167.620,166.507 168.086 M162.602 167.887 C 162.433 168.055,161.724 168.215,161.000 168.246 C 160.743 168.257,160.533 168.379,160.533 168.517 C 160.533 168.797,162.457 168.562,162.667 168.256 C 162.740 168.149,163.040 168.002,163.333 167.928 C 163.849 167.800,163.848 167.794,163.311 167.764 C 163.006 167.747,162.687 167.802,162.602 167.887 M246.400 170.000 C 246.793 170.473,247.888 170.530,248.159 170.092 C 248.296 169.871,248.107 169.832,247.495 169.954 C 246.961 170.061,246.701 170.027,246.802 169.863 C 246.892 169.718,246.763 169.600,246.516 169.600 C 246.148 169.600,246.127 169.671,246.400 170.000 M153.333 181.308 C 153.333 181.440,153.644 182.430,154.023 183.508 C 154.402 184.585,154.889 186.030,155.105 186.718 C 155.476 187.901,155.522 187.944,155.949 187.503 C 156.558 186.874,157.868 184.218,157.702 183.949 C 157.445 183.534,157.098 183.738,157.196 184.246 C 157.250 184.527,157.116 184.826,156.897 184.910 C 156.678 184.994,156.563 185.166,156.641 185.291 C 156.718 185.417,156.507 185.759,156.171 186.051 L 155.560 186.582 155.267 185.891 C 155.106 185.511,154.649 184.270,154.252 183.133 C 153.581 181.209,153.333 180.718,153.333 181.308 M241.075 181.371 C 241.047 181.933,242.090 183.755,242.181 183.303 C 242.237 183.026,242.184 182.680,242.065 182.533 C 241.946 182.387,241.676 182.027,241.466 181.733 C 241.256 181.440,241.080 181.277,241.075 181.371 M244.317 186.800 C 243.762 187.438,243.815 187.677,244.419 187.263 C 244.683 187.082,245.148 186.133,244.973 186.133 C 244.931 186.133,244.635 186.433,244.317 186.800 M155.467 211.757 C 155.467 211.819,155.354 212.262,155.217 212.740 C 155.062 213.280,155.062 213.552,155.217 213.456 C 155.354 213.371,155.467 213.122,155.467 212.902 C 155.467 212.682,155.576 212.570,155.710 212.652 C 155.986 212.823,155.936 212.114,155.652 211.830 C 155.550 211.728,155.467 211.695,155.467 211.757 M154.467 214.856 C 154.015 215.829,154.048 216.124,154.552 215.619 C 154.782 215.389,154.932 214.962,154.885 214.670 C 154.810 214.201,154.761 214.223,154.467 214.856 M157.142 214.806 C 157.192 215.096,157.480 215.730,157.782 216.214 C 158.084 216.698,158.551 217.628,158.820 218.281 C 159.089 218.933,159.405 219.467,159.521 219.467 C 159.638 219.467,159.733 219.634,159.733 219.838 C 159.733 220.043,160.093 220.596,160.533 221.067 C 160.973 221.538,161.333 221.846,161.333 221.751 C 161.333 221.423,160.280 219.515,160.048 219.425 C 159.920 219.374,159.306 218.313,158.684 217.067 C 157.471 214.637,156.992 213.935,157.142 214.806 M245.067 214.778 C 245.067 214.986,245.193 215.198,245.348 215.249 C 245.503 215.301,245.663 215.574,245.704 215.857 C 245.746 216.140,245.914 216.416,246.078 216.470 C 246.258 216.530,246.195 216.140,245.921 215.488 C 245.465 214.402,245.067 214.071,245.067 214.778 M246.230 217.525 C 246.244 217.933,246.375 218.350,246.521 218.453 C 246.667 218.555,246.789 218.904,246.793 219.229 C 246.797 219.554,246.950 219.870,247.133 219.932 C 247.317 219.994,247.467 219.907,247.467 219.740 C 247.467 219.572,247.326 219.522,247.155 219.628 C 246.950 219.755,246.897 219.679,247.001 219.409 C 247.147 219.027,246.686 217.264,246.352 216.930 C 246.272 216.849,246.217 217.117,246.230 217.525 M247.733 221.444 C 247.733 221.652,247.583 221.890,247.400 221.973 C 247.217 222.056,247.305 222.095,247.597 222.059 C 248.141 221.992,248.535 221.067,248.020 221.067 C 247.862 221.067,247.733 221.237,247.733 221.444 M162.752 224.781 C 163.068 225.358,163.382 225.773,163.451 225.704 C 163.619 225.537,162.638 223.733,162.380 223.733 C 162.269 223.733,162.436 224.205,162.752 224.781 M234.191 229.039 C 232.937 231.430,232.695 231.842,232.400 232.092 C 232.246 232.222,232.340 232.250,232.622 232.158 C 232.890 232.071,233.348 232.000,233.638 232.000 C 233.928 232.000,234.091 231.880,234.000 231.733 C 233.909 231.587,233.969 231.467,234.133 231.467 C 234.297 231.467,234.356 231.345,234.264 231.196 C 234.172 231.047,233.985 230.994,233.848 231.078 C 233.712 231.162,233.600 231.111,233.600 230.965 C 233.600 230.527,234.158 230.318,234.477 230.637 C 234.640 230.800,234.899 230.930,235.053 230.925 C 235.207 230.921,235.123 230.795,234.867 230.645 C 234.179 230.245,234.294 229.585,235.261 228.394 C 235.734 227.811,235.926 227.488,235.687 227.678 C 235.369 227.929,235.224 227.939,235.149 227.714 C 235.093 227.545,234.661 228.141,234.191 229.039 M152.512 229.358 C 152.939 229.529,153.250 229.523,153.432 229.341 C 153.620 229.153,153.418 229.072,152.787 229.084 C 151.922 229.099,151.906 229.116,152.512 229.358 M165.559 230.641 C 165.753 230.761,165.893 230.963,165.869 231.090 C 165.846 231.216,165.956 231.363,166.113 231.416 C 166.271 231.468,166.400 231.314,166.400 231.073 C 166.400 230.798,166.524 230.707,166.733 230.827 C 166.917 230.933,166.977 230.920,166.867 230.799 C 166.757 230.678,166.339 230.544,165.936 230.501 C 165.471 230.451,165.334 230.502,165.559 230.641 M163.200 230.914 C 163.200 231.050,162.990 231.216,162.733 231.283 C 162.340 231.386,162.335 231.410,162.701 231.436 C 162.939 231.453,163.284 231.287,163.467 231.067 C 163.696 230.790,163.706 230.667,163.499 230.667 C 163.335 230.667,163.200 230.778,163.200 230.914 M166.933 231.451 C 166.933 231.606,166.673 231.733,166.356 231.733 C 165.543 231.733,165.824 231.897,167.000 232.110 C 167.682 232.233,168.000 232.193,168.000 231.984 C 168.000 231.815,167.814 231.748,167.586 231.835 C 167.359 231.922,167.240 231.884,167.324 231.749 C 167.407 231.614,167.353 231.428,167.204 231.336 C 167.055 231.244,166.933 231.296,166.933 231.451 M208.733 243.917 C 207.643 244.202,208.314 244.596,209.600 244.425 C 211.086 244.228,211.365 244.578,210.389 245.415 C 210.089 245.671,209.916 245.998,210.004 246.140 C 210.093 246.283,209.918 246.400,209.616 246.400 C 209.314 246.400,209.067 246.509,209.067 246.642 C 209.067 246.980,210.051 246.687,210.424 246.238 C 210.593 246.034,210.631 245.867,210.507 245.867 C 210.383 245.867,210.550 245.678,210.878 245.448 C 211.207 245.218,211.406 244.918,211.321 244.780 C 211.236 244.642,211.354 244.458,211.583 244.370 C 212.841 243.887,210.358 243.493,208.733 243.917 M205.333 244.292 C 205.333 244.475,205.733 244.537,206.411 244.459 C 207.946 244.281,208.048 244.000,206.578 244.000 C 205.855 244.000,205.333 244.122,205.333 244.292 M201.370 256.274 C 201.042 256.718,200.656 257.009,200.513 256.921 C 200.370 256.833,200.286 256.877,200.327 257.020 C 200.367 257.163,200.280 257.280,200.133 257.280 C 199.987 257.280,199.900 257.163,199.940 257.020 C 199.980 256.877,199.884 256.840,199.727 256.937 C 199.526 257.061,199.534 257.227,199.753 257.490 C 200.153 257.972,200.009 258.049,201.305 256.667 C 201.923 256.007,202.325 255.467,202.198 255.467 C 202.071 255.467,201.698 255.830,201.370 256.274 " stroke="none" fill-rule="evenodd"></path>
      <path id="path2" d="M163.267 173.217 C 163.083 173.415,162.933 173.703,162.933 173.855 C 162.933 174.008,162.834 174.133,162.712 174.133 C 162.484 174.133,162.177 174.683,161.557 176.200 C 161.362 176.677,161.135 177.067,161.051 177.067 C 160.968 177.067,160.735 177.487,160.533 178.000 C 160.332 178.513,160.092 178.933,160.000 178.933 C 159.908 178.933,159.668 179.353,159.467 179.867 C 159.265 180.380,159.003 180.800,158.884 180.800 C 158.764 180.800,158.674 181.010,158.682 181.267 C 158.697 181.689,158.728 181.685,159.016 181.223 C 159.190 180.943,159.513 180.512,159.733 180.265 C 160.147 179.802,160.737 178.746,162.297 175.683 C 162.797 174.702,163.385 173.720,163.605 173.500 C 163.824 173.280,163.913 173.046,163.802 172.978 C 163.691 172.911,163.450 173.018,163.267 173.217 M248.597 174.396 C 248.416 174.688,248.267 175.105,248.267 175.323 C 248.267 175.670,247.596 177.340,246.896 178.733 C 246.754 179.018,246.763 179.200,246.920 179.200 C 247.062 179.200,247.322 178.720,247.498 178.133 C 247.674 177.547,247.900 177.067,248.000 177.067 C 248.100 177.067,248.316 176.617,248.481 176.067 C 249.187 173.716,249.207 173.420,248.597 174.396 M246.603 180.125 C 246.534 180.487,246.565 180.729,246.673 180.663 C 246.960 180.486,247.187 179.467,246.939 179.467 C 246.824 179.467,246.672 179.763,246.603 180.125 M245.067 229.509 C 244.492 229.811,244.473 229.857,244.933 229.844 C 245.787 229.820,246.571 229.454,246.114 229.292 C 245.905 229.219,245.433 229.316,245.067 229.509 M158.267 230.400 C 159.047 230.736,160.519 230.736,160.000 230.400 C 159.780 230.258,159.180 230.148,158.667 230.156 C 157.904 230.168,157.831 230.213,158.267 230.400 M239.596 230.572 C 238.846 230.894,238.876 230.904,240.133 230.750 C 241.967 230.526,242.889 230.139,241.463 230.191 C 240.874 230.212,240.034 230.384,239.596 230.572 M206.133 250.667 C 206.133 250.813,206.043 250.919,205.933 250.902 C 205.453 250.826,204.992 250.948,205.153 251.109 C 205.250 251.205,205.180 251.470,204.998 251.697 C 204.816 251.925,205.117 251.771,205.667 251.357 C 206.713 250.569,206.842 250.400,206.400 250.400 C 206.253 250.400,206.133 250.520,206.133 250.667 M136.333 274.317 C 136.590 274.384,137.010 274.384,137.267 274.317 C 137.523 274.250,137.313 274.195,136.800 274.195 C 136.287 274.195,136.077 274.250,136.333 274.317 M195.533 274.317 C 195.790 274.384,196.210 274.384,196.467 274.317 C 196.723 274.250,196.513 274.195,196.000 274.195 C 195.487 274.195,195.277 274.250,195.533 274.317 M340.600 274.317 C 340.857 274.384,341.277 274.384,341.533 274.317 C 341.790 274.250,341.580 274.195,341.067 274.195 C 340.553 274.195,340.343 274.250,340.600 274.317 " stroke="none" fill-rule="evenodd"></path>
      <path id="path3" d="M249.327 171.786 C 248.856 173.026,248.700 174.067,249.035 173.733 C 249.307 173.462,249.909 171.154,249.749 170.994 C 249.701 170.945,249.511 171.302,249.327 171.786 M163.911 172.444 C 163.656 172.699,163.692 173.067,163.971 173.067 C 164.102 173.067,164.279 172.887,164.363 172.667 C 164.519 172.260,164.235 172.121,163.911 172.444 M246.133 181.413 C 246.133 181.751,245.989 182.171,245.813 182.347 C 245.596 182.564,245.588 182.667,245.787 182.667 C 245.949 182.667,246.213 182.289,246.374 181.827 C 246.731 180.803,246.731 180.800,246.400 180.800 C 246.253 180.800,246.133 181.076,246.133 181.413 M158.163 182.163 C 157.912 182.883,157.926 182.950,158.267 182.666 C 158.484 182.487,158.601 182.243,158.529 182.126 C 158.456 182.008,158.542 181.864,158.719 181.805 C 158.947 181.729,158.955 181.645,158.746 181.516 C 158.571 181.408,158.335 181.669,158.163 182.163 M248.304 223.262 C 248.452 223.741,248.637 224.553,248.714 225.067 C 248.792 225.580,248.946 226.120,249.057 226.267 C 249.507 226.863,249.599 228.284,249.195 228.410 C 248.978 228.478,248.590 228.613,248.333 228.710 C 247.624 228.979,247.532 228.997,246.600 229.041 C 245.975 229.071,245.845 229.146,246.133 229.310 C 246.590 229.570,248.267 229.378,248.267 229.066 C 248.267 228.952,248.687 228.781,249.200 228.684 C 250.251 228.487,250.278 228.406,249.764 227.005 C 249.561 226.452,249.181 225.244,248.918 224.321 C 248.656 223.397,248.350 222.585,248.238 222.515 C 248.126 222.446,248.156 222.782,248.304 223.262 M154.667 229.619 C 154.667 229.729,155.177 229.899,155.800 229.996 C 156.423 230.093,157.173 230.229,157.467 230.299 L 158.000 230.425 157.467 230.094 C 156.831 229.700,154.667 229.332,154.667 229.619 M243.333 229.790 C 243.040 229.861,242.688 230.025,242.551 230.155 C 242.415 230.284,242.702 230.276,243.189 230.136 C 243.677 229.997,244.179 229.946,244.305 230.023 C 244.430 230.101,244.533 230.038,244.533 229.882 C 244.533 229.591,244.252 229.569,243.333 229.790 M239.378 230.327 C 239.182 230.644,240.186 231.103,240.465 230.824 C 240.551 230.738,240.432 230.667,240.200 230.667 C 239.968 230.667,239.730 230.523,239.671 230.346 C 239.593 230.113,239.514 230.108,239.378 230.327 M207.616 248.675 C 207.331 248.890,207.188 249.067,207.297 249.067 C 207.407 249.067,207.160 249.363,206.748 249.725 C 206.215 250.194,206.122 250.386,206.422 250.392 C 206.654 250.396,207.230 249.920,207.701 249.333 C 208.577 248.244,208.542 247.975,207.616 248.675 M205.152 251.456 C 205.203 251.610,203.652 253.407,202.867 254.104 C 202.610 254.332,202.404 254.702,202.408 254.926 C 202.414 255.192,202.650 255.056,203.090 254.533 C 203.460 254.093,204.291 253.171,204.935 252.484 C 205.824 251.537,205.985 251.244,205.605 251.273 C 205.329 251.294,205.125 251.376,205.152 251.456 " stroke="none" fill-rule="evenodd"></path>
      <path id="path4" d="M165.065 170.614 C 164.707 171.303,164.290 171.955,164.140 172.063 C 163.965 172.188,163.985 172.260,164.196 172.263 C 164.506 172.266,166.008 169.653,165.810 169.454 C 165.759 169.403,165.424 169.925,165.065 170.614 M248.478 170.400 C 248.814 170.542,249.270 171.050,249.491 171.529 C 249.840 172.285,249.874 172.306,249.747 171.689 C 249.656 171.246,249.727 170.933,249.934 170.859 C 250.446 170.676,250.105 170.487,248.933 170.306 C 248.108 170.179,248.005 170.200,248.478 170.400 M157.709 182.768 C 157.394 183.589,157.709 184.157,158.057 183.394 C 158.260 182.950,158.283 182.626,158.121 182.526 C 157.979 182.438,157.794 182.547,157.709 182.768 M242.134 183.276 C 242.133 183.835,243.334 186.287,243.728 186.530 C 244.123 186.774,244.092 186.686,243.067 184.651 C 242.555 183.633,242.135 183.014,242.134 183.276 M245.333 183.716 C 245.333 183.853,245.205 184.303,245.048 184.716 C 244.891 185.129,244.759 185.527,244.755 185.600 C 244.751 185.673,244.625 185.973,244.476 186.267 C 244.235 186.740,244.249 186.755,244.600 186.400 C 244.818 186.180,245.120 185.640,245.271 185.200 C 245.422 184.760,245.631 184.190,245.735 183.933 C 245.847 183.656,245.804 183.467,245.629 183.467 C 245.466 183.467,245.333 183.579,245.333 183.716 M164.222 227.384 C 164.418 227.462,164.803 228.053,165.079 228.696 C 165.355 229.340,165.735 229.857,165.924 229.846 C 166.192 229.829,166.194 229.795,165.933 229.690 C 165.750 229.616,165.600 229.395,165.600 229.199 C 165.600 228.568,164.679 227.203,164.267 227.223 C 163.963 227.237,163.952 227.276,164.222 227.384 M153.467 229.333 C 153.376 229.480,153.419 229.600,153.562 229.600 C 153.706 229.600,154.043 229.683,154.312 229.785 C 154.769 229.958,154.772 229.942,154.352 229.518 C 153.835 228.996,153.693 228.966,153.467 229.333 M165.933 230.505 C 166.449 230.896,166.559 231.467,166.118 231.467 C 165.962 231.467,165.909 231.348,165.998 231.203 C 166.095 231.046,165.975 231.011,165.703 231.115 C 165.357 231.248,165.301 231.198,165.474 230.912 C 165.669 230.589,165.636 230.587,165.251 230.899 C 164.534 231.481,164.719 231.733,165.867 231.733 C 166.547 231.733,166.930 231.613,166.925 231.400 C 166.912 230.893,166.254 230.132,165.837 230.142 C 165.567 230.148,165.593 230.246,165.933 230.505 M161.333 230.896 C 161.333 231.141,164.015 231.540,164.229 231.327 C 164.298 231.257,164.103 231.200,163.794 231.200 C 163.484 231.200,163.157 231.080,163.067 230.933 C 162.866 230.608,161.333 230.575,161.333 230.896 M236.400 230.993 C 235.667 231.132,234.783 231.301,234.435 231.369 C 234.088 231.437,233.853 231.542,233.913 231.602 C 234.119 231.808,238.901 231.097,238.768 230.882 C 238.613 230.630,238.213 230.649,236.400 230.993 M209.200 246.873 C 208.731 247.222,207.634 248.533,207.811 248.533 C 207.905 248.533,208.402 248.113,208.916 247.600 C 209.746 246.769,209.913 246.343,209.200 246.873 M201.131 255.999 C 200.629 256.731,200.249 257.030,199.918 256.954 C 199.515 256.860,199.491 256.908,199.771 257.245 C 200.068 257.603,202.400 255.663,202.400 255.059 C 202.400 254.614,201.751 255.095,201.131 255.999 " stroke="none" fill-rule="evenodd"></path>
    </g>
  </symbol>
</svg>