<svg width="0" height="0" class="hidden">
  <symbol version="1.1" id="logo" xmlns="http://www.w3.org/2000/svg" xmlns:xlink="http://www.w3.org/1999/xlink" x="0px" y="0px" xml:space="preserve" viewBox="0 0 434.24 434.24">
    <path fill="#66645D" d="M156.97,316.51h120.29c0,15.06-12.21,27.27-27.27,27.27h-65.74
	C169.19,343.78,156.97,331.57,156.97,316.51z"></path>
    <path fill="#999999" d="M434.24,316.51v32.7c0,12.1-9.81,21.91-21.91,21.91H21.91C9.81,371.12,0,361.31,0,349.21v-32.7h16.15
	h140.82c0,15.06,12.22,27.27,27.28,27.27h65.74c15.06,0,27.27-12.21,27.27-27.27h140.82H434.24z"></path>
    <path fill="#B2B1AA" d="M418.08,85.03v231.48H277.26H156.97H16.15V85.03c0-12.1,9.81-21.91,21.91-21.91h358.11
	C408.27,63.12,418.08,72.93,418.08,85.03z M385.32,280.91V97.42H269.97H48.92v183.49h160.91H385.32z"></path>
    <polygon fill="#E59683" points="385.32,97.42 385.32,280.91 189.12,280.91 269.97,97.42 "></polygon>
    <polygon fill="#E2BAB5" points="269.97,97.42 189.12,280.91 48.92,280.91 48.92,97.42 "></polygon>
    <g></g>
    <g></g>
    <g></g>
    <g></g>
    <g></g>
    <g></g>
    <g></g>
    <g></g>
    <g></g>
    <g></g>
    <g></g>
    <g></g>
    <g></g>
    <g></g>
    <g></g>
  </symbol>
</svg>